<svg xmlns="http://www.w3.org/2000/svg" viewBox="0 0 500 500"><g id="freepik--Shadow--inject-136"><polygon id="freepik--shadow--inject-136" points="207.71 467.37 62.98 383.82 312.68 239.66 457.4 323.21 207.71 467.37" style="fill:#f0f0f0"></polygon></g><g id="freepik--Window--inject-136"><g id="freepik--window--inject-136"><g id="freepik--window--inject-136"><g id="freepik--Frame--inject-136"><polygon points="326.57 24.87 323.51 26.58 323.51 161.24 326.57 159.52 326.57 24.87" style="fill:#fafafa"></polygon><polygon points="326.57 159.52 326.58 28.36 449.71 99.45 449.69 230.6 326.57 159.52" style="fill:#fff"></polygon><path d="M455.41,244V96.16L317.81,16.72v147.8Zm-131.9-82.72V26.58l126.2,72.87V234.1Z" style="fill:#f0f0f0"></path><polygon points="323.51 161.24 326.57 159.52 449.69 230.6 449.71 234.1 323.51 161.24" style="fill:#e0e0e0"></polygon><polygon points="357.88 46.42 354.81 44.65 354.81 179.31 357.88 177.6 357.88 46.42" style="fill:#fafafa"></polygon><polygon points="427.05 86.36 423.98 84.59 423.98 219.25 427.05 217.53 427.05 86.36" style="fill:#fafafa"></polygon><polygon points="455.4 243.96 458.46 242.19 458.46 94.38 455.41 96.16 455.4 243.96" style="fill:#e0e0e0"></polygon><polygon points="458.46 94.38 455.41 96.16 317.81 16.72 320.87 14.94 458.46 94.38" style="fill:#fafafa"></polygon><polygon points="449.71 160.83 449.71 164.37 323.5 91.5 326.55 89.72 449.71 160.83" style="fill:#e0e0e0"></polygon></g><polygon points="449.7 170.94 449.71 164.37 323.5 91.5 323.51 98.08 449.7 170.94" style="fill:#f0f0f0"></polygon><polygon points="423.98 225.82 418.3 222.54 418.3 74.73 423.98 78.02 423.98 225.82" style="fill:#f0f0f0"></polygon><polygon points="354.82 185.89 349.14 182.61 349.14 34.8 354.82 38.09 354.82 185.89" style="fill:#f0f0f0"></polygon><polygon points="423.98 149.51 427.05 147.75 427.05 86.36 423.98 84.59 423.98 149.51" style="fill:#fafafa"></polygon><polygon points="354.84 109.59 357.91 107.83 357.91 46.44 354.84 44.67 354.84 109.59" style="fill:#fafafa"></polygon></g></g></g><g id="freepik--Character--inject-136"><g id="freepik--character--inject-136"><g id="freepik--character--inject-136"><g id="freepik--Chair--inject-136"><g id="freepik--chair--inject-136"><path d="M57.19,166.19a63.17,63.17,0,0,0-4.47,19.64c-1.28,15,4,57.89,7.08,79.68h0c4.43,36.43,9.85,36.49,17.75,42.59,13.57,10.48,52.62,31,65.51,36.12,23.37,9.19,42.47-5,56.71-12a330.5,330.5,0,0,0,37.73-22.34c3.56-2.6,5.4-5.22,5.37-8,0-1.08,0-5.56,0-6.71,0-3.52-3.1-7.29-9.64-11.53-12.07-7.83-55.69-33.27-72.6-42.63a.16.16,0,0,0-.14-.14c-13-7.9-21-55.65-30-84.21-.19-.6-.38-1.2-.58-1.77s-.32-.9-.47-1.33c-.57-1.55-1.15-3-1.77-4.27" style="fill:#057C8D"></path><path d="M242.87,295.16c0-3.52-3.1-7.29-9.64-11.53-12.07-7.83-55.69-33.27-72.6-42.63a.16.16,0,0,0-.14-.14c-13-7.9-21-55.65-30-84.21a54.68,54.68,0,0,0-1.88-5.25l-.17-.38c-.16-.38-.33-.77-.51-1.16-.09-.19-.17-.4-.26-.58h0a27.4,27.4,0,0,0-6-8.68,13,13,0,0,0-3-2.07c-1.46-.83-4.53-2.54-5.3-3-8.84-5.28-20.42,1.06-34.86,9-9,4.92-16.65,10.78-21.31,21.68h0a63.17,63.17,0,0,0-4.47,19.64c-1.28,15,4,57.89,7.08,79.68h0c4.43,36.43,9.85,36.49,17.75,42.59,13.57,10.48,52.62,31,65.51,36.12,23.37,9.19,42.47-5,56.71-12a330.5,330.5,0,0,0,37.73-22.34c3.56-2.6,5.4-5.22,5.37-8C242.84,300.79,242.87,296.31,242.87,295.16Z" style="fill:#057C8D"></path><path d="M242.87,295.16c0-3.52-3.1-7.29-9.64-11.53-12.07-7.83-55.69-33.27-72.6-42.63a.16.16,0,0,0-.14-.14c-13-7.9-21-55.65-30-84.21a54.68,54.68,0,0,0-1.88-5.25l-.17-.38c-.16-.38-.33-.77-.51-1.16-.09-.19-.17-.4-.26-.58h0a27.4,27.4,0,0,0-6-8.68,13,13,0,0,0-3-2.07c-1.46-.83-4.53-2.54-5.3-3-8.84-5.28-20.42,1.06-34.86,9-9,4.92-16.65,10.78-21.31,21.68h0a63.17,63.17,0,0,0-4.47,19.64c-1.28,15,4,57.89,7.08,79.68h0c4.43,36.43,9.85,36.49,17.75,42.59,13.57,10.48,52.62,31,65.51,36.12,23.37,9.19,42.47-5,56.71-12a330.5,330.5,0,0,0,37.73-22.34c3.56-2.6,5.4-5.22,5.37-8C242.84,300.79,242.87,296.31,242.87,295.16Z" style="fill:#fff;opacity:0.25"></path><path d="M199.76,325.42a330.88,330.88,0,0,0,37.73-22.35c8.1-5.89,7.35-11.91-4.26-19.44-16.13-10.46-81.87-47.77-81.87-47.77S68.24,284.92,71.81,294s55,37.09,71.23,43.46C166.42,346.63,185.52,332.45,199.76,325.42Z" style="fill:#057C8D"></path><path d="M199.76,325.42a330.88,330.88,0,0,0,37.73-22.35c8.1-5.89,7.35-11.91-4.26-19.44-16.13-10.46-81.87-47.77-81.87-47.77S68.24,284.92,71.81,294s55,37.09,71.23,43.46C166.42,346.63,185.52,332.45,199.76,325.42Z" style="fill:#fff;opacity:0.6000000000000001"></path><path d="M118.66,138.53c-8.75-4.59-20.12,1.65-34.18,9.35-9,4.94-16.69,10.8-21.35,21.75l-5.94-3.44c4.66-10.9,12.32-16.76,21.31-21.68,14.44-7.91,26-14.25,34.86-9C114.13,136,117.2,137.7,118.66,138.53Z" style="fill:#057C8D"></path><path d="M118.66,138.53c-8.75-4.59-20.12,1.65-34.18,9.35-9,4.94-16.69,10.8-21.35,21.75l-5.94-3.44c4.66-10.9,12.32-16.76,21.31-21.68,14.44-7.91,26-14.25,34.86-9C114.13,136,117.2,137.7,118.66,138.53Z" style="fill:#fff;opacity:0.5"></path><path d="M130.45,156.65c-.19-.6-3.2-11.08-8.84-16.05A14.25,14.25,0,0,0,112,137c-7.64,0-16.81,5-27.56,10.93-.9.49-1.79,1-2.66,1.51-.34.19-.67.4-1,.6s-.8.49-1.19.75-.58.36-.87.56a50.54,50.54,0,0,0-5.42,4.12c-.28.24-.54.48-.81.74a37.14,37.14,0,0,0-3.07,3.19c-.18.2-.36.41-.52.61s-.42.5-.61.76-.39.52-.59.78-.38.52-.57.8A39.23,39.23,0,0,0,65,165.75a4.09,4.09,0,0,0-.25.46c-.18.31-.35.64-.51,1s-.47,1-.7,1.44c-2.45,5.4-4.15,12.08-4.87,20.59-2.08,24.73,6.59,100.54,15.09,107.59,0,0-1.3-8,15.8-18.76,11.63-7.31,19.79-13.46,32.2-19.55,30.24-14.85,38.71-17.63,38.71-17.63C147.49,233,139.46,185.21,130.45,156.65Z" style="fill:#057C8D"></path><path d="M130.45,156.65c-.19-.6-3.2-11.08-8.84-16.05A14.25,14.25,0,0,0,112,137c-7.64,0-16.81,5-27.56,10.93-.9.49-1.79,1-2.66,1.51-.34.19-.67.4-1,.6s-.8.49-1.19.75-.58.36-.87.56a50.54,50.54,0,0,0-5.42,4.12c-.28.24-.54.48-.81.74a37.14,37.14,0,0,0-3.07,3.19c-.18.2-.36.41-.52.61s-.42.5-.61.76-.39.52-.59.78-.38.52-.57.8A39.23,39.23,0,0,0,65,165.75a4.09,4.09,0,0,0-.25.46c-.18.31-.35.64-.51,1s-.47,1-.7,1.44c-2.45,5.4-4.15,12.08-4.87,20.59-2.08,24.73,6.59,100.54,15.09,107.59,0,0-1.3-8,15.8-18.76,11.63-7.31,19.79-13.46,32.2-19.55,30.24-14.85,38.71-17.63,38.71-17.63C147.49,233,139.46,185.21,130.45,156.65Z" style="fill:#fff;opacity:0.4"></path></g></g><g id="freepik--character--inject-136"><g id="freepik--Bottom--inject-136"><path d="M250.64,283l-70,40.42-51.88-61,53.91-25.58S226.7,260.23,250.64,283Z" style="fill:#37474f"></path><path d="M214.9,303.61l-26.26,15.16c-12.45-19.41-22.46-35.86-22.46-35.86l2.25-.37c12.21-5.35,17.2-29.54,17.2-29.54,1.49,6.61,1.76,20-2.32,25C189,282.17,198.32,289.81,214.9,303.61Z" style="fill:#263238"></path><path d="M210.75,306l-54.91,31.7c-6.61-3.35-13.89-7.1-21.43-11C108.89,313.28,100.35,308,93,298.72,84.57,288.1,80.17,279.38,78.92,250l103.45-13c8.57,22.33-4,41.63-4,41.63S196.5,293.77,210.75,306Z" style="fill:#37474f"></path></g><g id="freepik--Top--inject-136"><path d="M154.67,124.57c12.92-.13,20.64,2.41,29.71,16.31,14.25,21.83,24.85,42.18,24.85,42.18s19.06,9.18,29,12.64c9.3,3.23,13,4.59,17,5.53a58.89,58.89,0,0,0,10.14,1.53s-4.68,25-15.12,22.82c-16.2-3.39-44.9-8.74-52.53-10.88s-10.16-5.86-17.55-15.65c-7.52-10-23.29-36.49-23.29-36.49Z" style="fill:#c8856a"></path><path d="M154.67,124.17c11.76.24,16.12,1.13,21.65,5.9s10.8,13.51,15.75,21.54S206,174.9,206,174.9s-1.93,8.55-11.65,15.08-16.51,7.36-16.51,7.36L154.2,163.42Z" style="fill:#455a64"></path><path d="M182.92,166.65c-1.35-29.12-13.49-40.79-28.25-42.48,0,0-19.24-.79-31,.9-14.29,2.07-29.07,5.79-29.07,5.79-5.72,2.66-15.23,25.17-16.26,45.71C77.6,191.16,77,202.18,77,220.63s-.13,27.1,2.93,46.36c20.13,7.72,89.16,5.57,106.28-28.25a50.14,50.14,0,0,1-3.66-20.36C182.69,208.6,183.34,175.8,182.92,166.65Z" style="fill:#f0f0f0"></path><g id="freepik--Head--inject-136"><path d="M117.86,113.46c-.19-8.24-7-17.8-9.55-25.34-2.48-7.26-3.79-12.81-2.47-19.1.79-3.73,3.9-8.49,6.85-9.15-1.19-14.46,10.26-19.42,16-19.94a60.16,60.16,0,0,0,8-1c3.22-.83,4.26-3.17,7-4.88,4.73-3,11.83-2,13.74,3.79,3.33-3.21,7.11-2.56,11.34-.81a7.58,7.58,0,0,1,4.5,9.31c6.35-2.43,11.13,2.5,11.16,6,0,2.6-.83,4.67.51,7.19,1.5,2.84,5,3.31,6.43,1.4.08,3.7-1.74,6.25-5.63,5.48a8.26,8.26,0,0,1,0,7,7.56,7.56,0,0,1-7.53,4.18c-.7,1.93-1.05,3.73-2.55,5.26a13.17,13.17,0,0,1-5.22,3.49c-6.35,2-13,1.92-19.63,2.31l-7.82.47c-.45,0-2.77-.17-3.1.18Z" style="fill:#263238"></path><path d="M109.64,101.64c5.16,4.2,9.52,1.1,9.52,1.1l-4.27,26.46c2.75,12,21.86,16.73,29.38,14.55s7.24-6.5,3.59-13.52L149,126a77.63,77.63,0,0,0,9.63,1c6.42.06,12.63-5.27,15.43-11.83a60.93,60.93,0,0,0,4-26,19.54,19.54,0,0,1,.63-6.67c1.46-5.77.9-9.34.11-14.49-6.13-6.6-21.89-10.84-38.18-3.93.43,9.16-4.06,15.71-11,18.15,0,2.45-.64,8.57-4.57,7.88-2.84-.5-2.5-4.1-5-7.67s-9.16-5.41-12.48-1.16C102.91,87.12,104,97,109.64,101.64Z" style="fill:#c8856a"></path><path d="M148,105.47a3.53,3.53,0,0,0-.79,1.76,2.31,2.31,0,0,0,0,.87,2.54,2.54,0,0,0,1.59,1.91,3.39,3.39,0,0,0,1.51.29A5.4,5.4,0,0,0,153,109a4.91,4.91,0,0,1,2.77-1.23,16.17,16.17,0,0,1-2.43-1.76,5.85,5.85,0,0,1-1-.91,12,12,0,0,1-.83-1.27.49.49,0,0,0-.23-.24.44.44,0,0,0-.32,0,6.76,6.76,0,0,0-2.49,1.27A4.32,4.32,0,0,0,148,105.47Z" style="fill:#ffa8a7"></path><path d="M152.9,105.86c-.15-.47-.72-.3-1.07-.21a4.73,4.73,0,0,0-1.53.7,3.33,3.33,0,0,0-.74.71,5.8,5.8,0,0,0-.47.93s0,.11,0,.07a6.56,6.56,0,0,1,.73-.54l.8-.53a5.81,5.81,0,0,1,1.56-.66C152.47,106.27,153,106.28,152.9,105.86Z" style="fill:#f28f8f"></path><path d="M159.72,102.11l10.11-1.82c-2.85-8.6-7-16.58-9.88-16.55Z" style="fill:#af6152"></path><path d="M150.94,103.17a1,1,0,0,1,.5.11,5.06,5.06,0,0,1,1.2,1,15.45,15.45,0,0,0,4.67,3,11.6,11.6,0,0,0,1.13.39l1.3.39a.74.74,0,0,1,.4.21c.68.81-1.77.49-2,.45a12.4,12.4,0,0,1-2.73-.74,10.85,10.85,0,0,1-4.54-3.28,1.8,1.8,0,0,1-.41-.77.65.65,0,0,1,.36-.73A.27.27,0,0,1,150.94,103.17Z" style="fill:#af6152"></path><path d="M149,126c-9.83-2.64-17.27-4.83-21.42-12.84-2.6-5-4.29-12.73-4.29-12.73s-.27,9,2.11,15.48c1.85,5,7.2,9.95,22.68,13.58Z" style="fill:#af6152"></path><path d="M153.75,86.28a3,3,0,1,1-2.67-3.39A3,3,0,0,1,153.75,86.28Z" style="fill:#263238"></path><path d="M152.86,76.35,146,78.81A3.82,3.82,0,0,1,148.27,74,3.54,3.54,0,0,1,152.86,76.35Z" style="fill:#263238"></path><path d="M176.55,81l-6.26-3.86a3.54,3.54,0,0,1,5-1.3A3.87,3.87,0,0,1,176.55,81Z" style="fill:#263238"></path><path d="M174.57,88.58a3,3,0,1,1-2.36-3.6A3,3,0,0,1,174.57,88.58Z" style="fill:#263238"></path></g></g></g></g><g id="freepik--Table--inject-136"><polygon points="207.73 405.41 79.8 331.55 310.89 198.13 438.81 271.99 207.73 405.41" style="fill:#057C8D"></polygon><polygon points="207.73 405.41 79.8 331.55 310.89 198.13 438.81 271.99 207.73 405.41" style="fill:#fff;opacity:0.8"></polygon><polygon points="79.8 331.55 79.8 383.96 207.73 457.82 207.73 405.41 79.8 331.55" style="fill:#057C8D"></polygon><polygon points="79.8 331.55 79.8 383.96 207.73 457.82 207.73 405.41 79.8 331.55" style="fill:#fff;opacity:0.5"></polygon><polygon points="207.73 457.82 438.82 324.4 438.81 271.99 207.73 405.41 207.73 457.82" style="fill:#057C8D"></polygon><polygon points="207.73 405.41 438.81 271.99 438.82 324.4 207.73 457.82 207.73 405.41" style="fill:#fff;opacity:0.65"></polygon><polygon points="384.54 303.32 323.27 387.14 262 374.07 384.54 303.32" style="fill:#ebebeb"></polygon><polygon points="118.11 353.67 143.76 415.22 169.42 383.29 118.11 353.67" style="fill:#e0e0e0"></polygon><polygon points="384.36 303.43 400.54 249.89 348.8 220.02 257.18 229.14 134.05 300.23 118.11 353.59 169.51 383.27 262 374.07 384.36 303.43" style="fill:#fafafa"></polygon></g><g id="freepik--shadow--inject-136"><path d="M274.12,367.07c12.53,7,28,6.45,44.73-3.22s32.23-27,44.75-48.44Z" style="fill:#e0e0e0"></path><path d="M333.54,262.53c-29.21-16.87-71.14-21.9-108-15.14l-69.32,40c-11.69,21.26-2.94,45.45,26.26,62.31,25,14.41,59.2,20.19,91.61,17.35l89.48-51.66C368.51,296.7,358.5,276.94,333.54,262.53Z" style="fill:#057C8D;opacity:0.2"></path></g><g id="freepik--Hand--inject-136"><path d="M250.27,225.58l5.16,1.67a42.87,42.87,0,0,0,7.2,1.89c2.34.33,5.19-.72,7.33-.14,1,.26,4.4,1.46,4.85,2.43s-.28,2.17-.23,3.09a12,12,0,0,0,1,3.66c.71,1.77,1.52,3.68,3.18,4.62.5.28,1.06.46,1.53.77a19.64,19.64,0,0,1,2.08,2.1,4.79,4.79,0,0,0,5,.78,8.59,8.59,0,0,0,2.84-2.43,52.41,52.41,0,0,0,3.56-4.68c2.16-3.2,4-7.11,2.94-10.81-.6-2-2-3.75-2.14-5.83a23.54,23.54,0,0,0,0-2.52c-.3-1.92-2.11-3.28-2.62-5.15-.18-.69-.18-1.42-.29-2.12-.41-2.56-2.59-4.29-4.45-5.91a37.19,37.19,0,0,0-6.36-4.48,9.38,9.38,0,0,0-3-1.2,10,10,0,0,0-2.67,0c-3.34.34-6.55,1-9.84,1.43-2.9.39-6.1,1.12-8.52,3-2.66,2.08-4.12,5.53-5.55,8.48-1.63,3.35-3.23,6.75-4.69,10.16Z" style="fill:#c8856a"></path><g id="freepik--Fork--inject-136"><path d="M275.88,238.23l15.33-59.34a16.21,16.21,0,0,1-2.77-2.83l-.77.2-17.18,57.45c-.49,1.77,2.89,5.52,4.18,5.19l.78-.19A.64.64,0,0,0,275.88,238.23Z" style="fill:#37474f"></path><path d="M270.49,233.71c-.57,2,4.05,6.76,4.62,4.71l15.33-59.34a15.81,15.81,0,0,1-2.77-2.82Z" style="fill:#455a64"></path><path d="M289.71,179.6l-13.62,53.2c-1,4-1.35,6.43-3.23,4.51-2.21-2.24-1.7-3.06-1.7-3.06a6,6,0,0,0,1.49,2.26c1.19,1.11,2-.34,2.6-3.26S289.71,179.6,289.71,179.6Z" style="fill:#fff;opacity:0.1"></path><path d="M300.55,147.39l-.76.18s1.91,4.48-.3,11.81a12,12,0,0,1-1.95,5.24c-.2-.53.84-3.13,1.2-5.74,1.17-8.41.53-12.17.53-12.17l-.88-.42-.77.19s1.27,1.76-1.2,12.33c-.45,3.16-1.14,3.8-1.77,4.5-.54-.3.59-3.16,1-5.4,1.81-9.28,1.57-12,1.57-12l-1.14-.68-.77.19s.74,1.56-2.24,12.64a12.56,12.56,0,0,1-1.65,3.82c-.52-.49.24-1.93,1.16-5a43.33,43.33,0,0,0,2.06-12.3l-1-.55-.76.19s1.34,4-4.54,16.34a19.56,19.56,0,0,0-1.77,9.57c.37,3,1.66,4.46,1.09,6.16a10.63,10.63,0,0,0,2.77,2.82,3.07,3.07,0,0,1,.22-.6c.18.14.36.29.54.42.67-2.84,4.89-3.21,6.55-5.6s3.1-5.64,4.48-12.91c1.41-7.48-.73-12.43-.73-12.43Z" style="fill:#37474f"></path><path d="M299.79,147.57s1.43,3.62-.3,11.81c-.6,2.82-1.82,6-2.6,5.57s.63-3.1,1.09-5.88c1.47-8.85.53-12.18.53-12.18l-.89-.41s.92,2.76-1.2,12.33c-.6,2.67-1.72,5.2-2.66,4.68s.48-3.14,1-5.4c2.22-9.09,1.69-12,1.69-12l-1.15-.67s.46,2.73-2.24,12.64c-.65,2.38-1.67,4.42-2.4,4.06s.09-1.77,1.15-5.05c2.58-8,2.05-12.31,2.05-12.31l-1-.54s.69,4-4.54,16.34c-1,2.42-2.13,6.6-1.77,9.57s1.66,4.46,1.09,6.16a10.63,10.63,0,0,0,2.77,2.82c.67-2.84,4.88-3.2,6.55-5.6s3.1-5.63,4.48-12.9c1.41-7.48-.74-12.44-.74-12.44Z" style="fill:#455a64"></path><path d="M293.77,173.42c-.68.54-1.41,1-2,1.61a3.51,3.51,0,0,0-1.14,2.26,8.31,8.31,0,0,1,1.74-1.5c.48-.29,1-.51,1.5-.77a10,10,0,0,0,4.53-5.08c.14-.36,1.12-3,.25-2.95-.34,0-.73,1.17-.89,1.46-.32.58-.66,1.15-1,1.69A14.59,14.59,0,0,1,293.77,173.42Z" style="fill:#fff;opacity:0.1"></path></g><path d="M265.86,206a79.85,79.85,0,0,0,13.65,1.23c2.81-.11,4.4-.42,4.77.69s.7,4.11-4.19,6.63-18.61,3.62-18.61,3.62Z" style="fill:#c8856a"></path><path d="M265.86,206a50.56,50.56,0,0,0,5.76.55c1.93.13,3.86.2,5.78.2,1,0,1.9,0,2.86-.07a14.56,14.56,0,0,1,3,0,2.14,2.14,0,0,1,1.58,1,2.73,2.73,0,0,1,.19,1.79,6.47,6.47,0,0,1-1.38,2.83,13.3,13.3,0,0,1-4.89,3.49,21.47,21.47,0,0,1-5.68,1.69,54.35,54.35,0,0,1-5.82.48c-1.94.06-3.88,0-5.8.2,3.81-.8,7.72-.79,11.46-1.61a23.49,23.49,0,0,0,5.38-1.74,12.5,12.5,0,0,0,4.43-3.25,5.4,5.4,0,0,0,1.19-2.3c.16-.91,0-1.36-.86-1.51-1.7-.25-3.79.13-5.71-.08A55.71,55.71,0,0,1,265.86,206Z" style="fill:#af6152"></path></g><g id="freepik--Clock--inject-136"><g id="freepik--clock--inject-136"><path d="M359.85,286.07v14.21h0c-.12,15-10,29.88-29.81,41.29-39.76,23-104.23,23-144,0-19.76-11.41-29.69-26.34-29.81-41.29h0V286.07l12.72,2.06A76.38,76.38,0,0,1,186,275c39.77-23,104.24-23,144,0a76.53,76.53,0,0,1,17,13Z" style="fill:#057C8D"></path><path d="M359.85,286.07v14.21h0c-.12,15-10,29.88-29.81,41.29-39.76,23-104.23,23-144,0-19.76-11.41-29.69-26.34-29.81-41.29h0V286.07l12.72,2.06A76.38,76.38,0,0,1,186,275c39.77-23,104.24-23,144,0a76.53,76.53,0,0,1,17,13Z" style="fill:#fff;opacity:0.4"></path><path d="M196.07,346.63a104.64,104.64,0,0,1-10-5.06c-19.76-11.41-29.69-26.34-29.81-41.29h0V286.07l12.72,2.06c1.07-1.12,2.21-2.21,3.41-3.29l23.73,5.85Z" style="fill:#057C8D;opacity:0.4"></path><ellipse cx="258.03" cy="285.79" rx="101.82" ry="58.79" style="fill:#057C8D"></ellipse><ellipse cx="258.03" cy="285.79" rx="101.82" ry="58.79" style="fill:#fff;opacity:0.6000000000000001"></ellipse><path d="M344.82,272.81c8.92,15.47,1.28,32.19-20.45,44.73-36,20.77-96.72,20.77-132.68,0-9.42-5.45-16.49-11.94-20.44-18.79C162.32,283.3,170,266.57,191.69,254c36-20.77,96.72-20.77,132.68,0,9.42,5.45,16.49,11.94,20.44,18.79Z" style="fill:#057C8D"></path><path d="M344.82,271.66c8.92,16.84,1.28,35-20.45,48.7-36,22.61-96.72,22.61-132.68,0-9.42-5.92-16.49-13-20.44-20.45-8.93-16.84-1.29-35,20.44-48.7,36-22.61,96.72-22.61,132.68,0,9.42,5.92,16.49,13,20.44,20.45Z" style="fill:#057C8D"></path><path d="M344.82,271.66c8.92,16.84,1.28,35-20.45,48.7-36,22.61-96.72,22.61-132.68,0-9.42-5.92-16.49-13-20.44-20.45-8.93-16.84-1.29-35,20.44-48.7,36-22.61,96.72-22.61,132.68,0,9.42,5.92,16.49,13,20.44,20.45Z" style="fill:#fff;opacity:0.4"></path><path d="M191.6,259.6c-13.84,8.7-21.94,19.24-23.71,30.1a30.71,30.71,0,0,0,3.36,10.21c3.95,7.46,11,14.53,20.44,20.45,36,22.61,96.72,22.61,132.68,0,13.84-8.7,21.93-19.24,23.71-30.09a31,31,0,0,0-3.36-10.22h0c-4-7.45-11-14.53-20.45-20.45C288.31,237,227.55,237,191.6,259.6Z" style="fill:#fafafa"></path><path d="M311.49,321.75a3.5,3.5,0,0,1-3.15-.07l-6.76-3.9c-.9-.52-.95-1.33-.11-1.81a3.52,3.52,0,0,1,3.16.07l6.76,3.9C312.29,320.46,312.34,321.27,311.49,321.75Z" style="fill:#057C8D"></path><path d="M311.49,262a3.5,3.5,0,0,0-3.15.07l-6.76,3.9c-.9.52-.95,1.33-.11,1.81a3.52,3.52,0,0,0,3.16-.07l6.76-3.89C312.29,263.31,312.34,262.49,311.49,262Z" style="fill:#057C8D"></path><path d="M204.24,321.75a3.5,3.5,0,0,0,3.15-.07l6.76-3.9c.91-.52.95-1.33.11-1.81a3.52,3.52,0,0,0-3.16.07l-6.75,3.9C203.44,320.46,203.4,321.27,204.24,321.75Z" style="fill:#057C8D"></path><path d="M204.24,262a3.5,3.5,0,0,1,3.15.07l6.76,3.9c.91.52.95,1.33.11,1.81a3.52,3.52,0,0,1-3.16-.07l-6.75-3.89C203.44,263.31,203.4,262.49,204.24,262Z" style="fill:#057C8D"></path></g><polygon points="257.98 293.08 297.73 316.95 300.18 315.84 264.83 291.47 257.98 293.08" style="fill:#455a64"></polygon><path d="M302.46,264.44l-4-2.43s-39.26,14.59-47.27,19.21c-1.88,1.09-2.81,2.51-2.81,3.93v2.38c0,1.42.93,2.85,2.81,3.94a15.06,15.06,0,0,0,13.62,0c8.24-3.31,37.63-24.64,37.63-24.64Z" style="fill:#37474f"></path><path d="M298.48,262s-39.26,14.59-47.27,19.21h0c-3.76,2.17-3.76,5.69,0,7.86a15.06,15.06,0,0,0,13.62,0c8.24-3.31,37.63-24.64,37.63-24.64Z" style="fill:#455a64"></path><path d="M260.25,283.88a4.89,4.89,0,0,0-4.44,0,1.35,1.35,0,0,0,0,2.56,4.89,4.89,0,0,0,4.44,0A1.35,1.35,0,0,0,260.25,283.88Z" style="fill:#263238"></path><rect x="274.96" y="256.19" width="7.96" height="0.66" transform="translate(-93.64 325.76) rotate(-53.13)" style="fill:#37474f"></rect><rect x="236.39" y="252.54" width="0.66" height="7.96" transform="translate(-106.56 193.3) rotate(-36.86)" style="fill:#37474f"></rect><rect x="278.61" y="322.9" width="0.66" height="7.96" transform="translate(-140.33 232.7) rotate(-36.86)" style="fill:#37474f"></rect><rect x="232.74" y="326.55" width="7.96" height="0.66" transform="translate(-166.81 320.09) rotate(-53.12)" style="fill:#37474f"></rect><rect x="320.28" y="276.29" width="10.67" height="0.66" transform="translate(-49.42 71.94) rotate(-11.73)" style="fill:#37474f"></rect><rect x="325.28" y="301.81" width="0.66" height="10.67" transform="translate(-41.13 563.78) rotate(-78.31)" style="fill:#37474f"></rect><rect x="189.7" y="271.28" width="0.66" height="10.67" transform="translate(-119.35 406.67) rotate(-78.31)" style="fill:#37474f"></rect><rect x="184.7" y="306.81" width="10.67" height="0.66" transform="translate(-58.44 45.02) rotate(-11.72)" style="fill:#37474f"></rect></g><g id="freepik--Arm--inject-136"><path d="M158,287.53a53.79,53.79,0,0,1-5.38-2.07,167.9,167.9,0,0,0-19.08-8l8.89,13.85c4.35,1.23,8.72,2.86,13.33,2.7a8.39,8.39,0,0,0,6.61-3.38C163.75,288.58,159.37,288,158,287.53Z" style="fill:#c8856a"></path><g id="freepik--Knife--inject-136"><path d="M142.55,329.66l15.32-59.34a16.45,16.45,0,0,1-2.76-2.82l-.77.19-17.18,57.45c-.49,1.77,2.89,5.52,4.18,5.19l.78-.19A.63.63,0,0,0,142.55,329.66Z" style="fill:#37474f"></path><path d="M169.6,238.93c-.27-6.58-2.2-9.36-3.38-9a9.69,9.69,0,0,0-.9.38c-1.08,2.27-9.64,34.7-14,50l4.36-1.32c1.15-5,8.39-6.19,10.55-11.48S169.92,247,169.6,238.93Z" style="fill:#37474f"></path><path d="M137.16,325.14c-.57,2.05,4.05,6.76,4.62,4.71l15.32-59.33a15.85,15.85,0,0,1-2.76-2.83Z" style="fill:#455a64"></path><path d="M168.47,239.43c-.32-8.09-2.7-10.68-3.78-8.42s-9.81,34.32-14.23,49.64l4.37-1.33c1.14-5,7.49-5.9,9.65-11.19S168.8,247.52,168.47,239.43Z" style="fill:#455a64"></path><path d="M156.37,271l-13.61,53.2c-1,4-1.36,6.43-3.24,4.52-2.2-2.25-1.69-3.07-1.69-3.07a6.08,6.08,0,0,0,1.48,2.26c1.2,1.11,2-.34,2.61-3.26S156.37,271,156.37,271Z" style="fill:#fff;opacity:0.1"></path></g><path d="M170.05,297.73a3.41,3.41,0,0,0-3.15-.66,6.66,6.66,0,0,0-2.83,1.69,5.38,5.38,0,0,1-1.71,1.26,4.67,4.67,0,0,1-2.23.05c-3-.41-6.91,0-9.63-1.42a28.73,28.73,0,0,1-4.37-3.29l-.21-.17c-1.49-1.19-2.94-2.43-4.36-3.7.07-.32.55-.31.88-.22l-8.89-13.85c-6.24-2.28-10.55-6.06-23.38-21.71L88.74,229.57S97,183.2,97.88,174.7c2.05-19.29,2.13-35.33-6.39-41.62-14.06,3.54-24.95,10.49-28.68,33.07-5.48,33.23-8.5,53-9.13,58.72-1.48,13.32-2.35,18.58,4.28,25.51,6.39,6.67,6.52,6.38,25.19,21.68,8.28,6.78,11.54,10.45,19.43,16.32,7.57,5.62,8.68,7,11.67,10.46s4.18,5.93,8.06,9.92a44,44,0,0,0,9.51,7.07,18.76,18.76,0,0,0,8.82,2.32,27.24,27.24,0,0,0,8.11-.38,22.5,22.5,0,0,0,4.18-.88c1.09-.44,1.83-1.53,2.76-2.22,1.19-.89,3.92-2,4.95-3a11.56,11.56,0,0,0,2.09-4.08,8.76,8.76,0,0,0,4.28-3.23,20.49,20.49,0,0,0,1.73-3.19C168.9,300.79,170.28,297.94,170.05,297.73Z" style="fill:#c8856a"></path><path d="M163.41,307.23a11.79,11.79,0,0,1-4.55,1.71,42.18,42.18,0,0,1-4.84.63c-.4,0-.75.09-1.26.09a8.65,8.65,0,0,1-1.27-.15,20.2,20.2,0,0,1-2.38-.6,35.31,35.31,0,0,1-4.53-1.74l4.72,1.05c.79.15,1.57.34,2.34.43a9.14,9.14,0,0,0,1.14.11c.3,0,.75-.07,1.15-.11,1.62-.13,3.22-.24,4.81-.4A18.32,18.32,0,0,0,163.41,307.23Z" style="fill:#af6152"></path><path d="M157.49,313.61a13.85,13.85,0,0,1-3.92,1.64,21.56,21.56,0,0,1-4.24.69,17.57,17.57,0,0,1-4.3-.63,33.34,33.34,0,0,1-4.06-1.23c1.42.14,2.81.35,4.21.54a31.4,31.4,0,0,0,4.09.4A35.66,35.66,0,0,0,157.49,313.61Z" style="fill:#af6152"></path><path d="M94.6,130.86c-14,3.74-23.56,8.21-28.27,20.75S56.1,201.23,56.1,201.23s2.92,6.46,17.22,9.71,19.49,1.62,19.49,1.62,4.87-26.79,6.5-35.65S106.62,145.48,94.6,130.86Z" style="fill:#455a64"></path></g></g></g><g id="freepik--Drink--inject-136"><g id="freepik--Glass--inject-136"><path id="freepik--shadow--inject-136" d="M373.68,285c8.36,4.63,21.89,4.63,30.24,0s8.35-12.14,0-16.77-21.88-4.64-30.24,0S365.34,280.38,373.68,285Z" style="fill:#057C8D;opacity:0.2"></path><g id="freepik--glass--inject-136"><path d="M370.26,224.63,371.91,268h0a5.61,5.61,0,0,0,.5,2.09,10,10,0,0,0,4.45,4.39c6.59,3.69,17.29,3.69,23.89,0a9.93,9.93,0,0,0,4.43-4.39,5.8,5.8,0,0,0,.49-1.82v0a5.06,5.06,0,0,0,0-.55v0l1.63-43a7.51,7.51,0,0,0,1.39-4l-2,53.47,0,.58c-.2,2.49-1.95,4.95-5.23,6.85-7,4-18.36,4-25.36,0-3.41-2-5.16-4.55-5.24-7.14v-.18l-2-53.58A7.47,7.47,0,0,0,370.26,224.63Z" style="fill:#f0f0f0"></path><path d="M374.72,228.55c7.77,4.49,20.39,4.49,28.17,0a13.31,13.31,0,0,0,4.43-3.89l-1.63,43v0l0,.55v0a5.8,5.8,0,0,1-.49,1.82,9.93,9.93,0,0,1-4.43,4.39c-6.6,3.69-17.3,3.69-23.89,0a10,10,0,0,1-4.45-4.39,5.61,5.61,0,0,1-.5-2.09h0l-1.65-43.34A13.41,13.41,0,0,0,374.72,228.55Z" style="fill:#e6e6e6"></path><path d="M405.68,268.11c-.14,2.31-1.79,4.59-4.93,6.35-6.6,3.69-17.3,3.69-23.9,0-3.14-1.76-4.79-4-4.93-6.35l-1.4-36.31c-.15-2.7,1.63-5.43,5.35-7.49,7.14-4,18.72-4,25.86,0,3.72,2.06,5.5,4.79,5.35,7.49Z" style="fill:#057C8D"></path><path d="M405.68,268.11c-.14,2.31-1.79,4.59-4.93,6.35-6.6,3.69-17.3,3.69-23.9,0-3.14-1.76-4.79-4-4.93-6.35l-1.4-36.31c-.15-2.7,1.63-5.43,5.35-7.49,7.14-4,18.72-4,25.86,0,3.72,2.06,5.5,4.79,5.35,7.49Z" style="fill:#fff;opacity:0.45"></path><path d="M400,273.7c-6.2,3.28-16.26,3.28-22.46,0s-6.2-8.58,0-11.86,16.26-3.27,22.46,0S406.23,270.43,400,273.7Z" style="fill:#057C8D;opacity:0.30000000000000004"></path><path d="M401.73,238.65c-7.14,4-18.72,4-25.86,0s-7.14-10.38,0-14.34,18.72-4,25.86,0S408.87,234.69,401.73,238.65Z" style="fill:#fff;opacity:0.7000000000000001"></path><path d="M375.87,238.66c6.19,3.43,15.71,3.88,22.79,1.37-9.86,1.71-19.12-2.88-18.31-8.8,0-.13,0-.25.07-.38a23.53,23.53,0,0,1-5.7-2.3,17.45,17.45,0,0,1-2.3-1.58C369,230.76,370.17,235.49,375.87,238.66Z" style="fill:#057C8D;opacity:0.2"></path><path d="M368.88,220.62v.08a7.47,7.47,0,0,0,1.37,3.93,13.41,13.41,0,0,0,4.46,3.92c7.77,4.49,20.39,4.49,28.17,0a13.31,13.31,0,0,0,4.43-3.89,7.51,7.51,0,0,0,1.39-4c.13-3-1.81-6.1-5.82-8.41-7.78-4.5-20.4-4.5-28.17,0C370.74,214.58,368.79,217.61,368.88,220.62Zm6.73-7.52c7.29-4,19.1-4,26.38,0s7.29,10.59,0,14.64-19.09,4-26.38,0S368.32,217.14,375.61,213.1Z" style="fill:#fafafa"></path><path d="M375.61,227.74c7.29,4,19.1,4,26.38,0s7.29-10.6,0-14.64-19.09-4-26.38,0S368.32,223.69,375.61,227.74Z" style="fill:#e6e6e6"></path><path d="M404.35,226.14a15,15,0,0,1-2.36,1.6c-7.28,4-19.09,4-26.38,0a15,15,0,0,1-2.36-1.6,14.21,14.21,0,0,1,2.62-1.83c7.14-4,18.72-4,25.86,0A14.21,14.21,0,0,1,404.35,226.14Z" style="fill:#057C8D"></path><path d="M404.35,226.14a15,15,0,0,1-2.36,1.6c-7.28,4-19.09,4-26.38,0a15,15,0,0,1-2.36-1.6,14.21,14.21,0,0,1,2.62-1.83c7.14-4,18.72-4,25.86,0A14.21,14.21,0,0,1,404.35,226.14Z" style="fill:#fff;opacity:0.65"></path><path d="M401.73,224.31c-.22-.13-.45-.25-.68-.36l0,0c-.36-.18-.74-.35-1.12-.51a26.51,26.51,0,0,0-6.62-1.78c-.63-.08-1.27-.16-1.91-.2s-1.1-.08-1.66-.09h-.91c-.59,0-1.17,0-1.75,0a30.39,30.39,0,0,0-5.95.9,21.8,21.8,0,0,0-5.23,2c-.25.13-.48.27-.71.41l-.13.09-.55.36-.09.06-.55.42,0,0-.56.47a15.66,15.66,0,0,0,2.36,1.6,22.64,22.64,0,0,0,5.17,2C383.07,224.71,393.27,221.78,401.73,224.31Z" style="fill:#057C8D;opacity:0.2"></path><path d="M372,270.51l.11,3.32v.23c.22,4.93,7.61,8.88,16.69,8.88s16.42-3.93,16.69-8.83v-.29l.1-3.34c-.89,4.63-8.08,8.24-16.81,8.24S372.92,275.13,372,270.51Z" style="fill:#fafafa"></path><path d="M400.08,274.8c-6.63,3.33-16.84,3.23-23.23-.35-3.14-1.76-4.79-4-4.93-6.34l-1.38-35.58h.07a8,8,0,0,0,2.81,4.45c.62,13.38.73,26.32,4.51,30.78C381.55,272,391,278.16,400.08,274.8Z" style="fill:#057C8D;opacity:0.2"></path></g></g></g><g id="freepik--Pizza--inject-136"><g id="freepik--slice-of-pizza--inject-136"><path d="M252.17,285.93l.27,4.44A148.78,148.78,0,0,0,273.61,292c13.58.25,72.68,2.46,75.49.63,4.49-2.91-1-9.71-1-9.71Z" style="fill:#ffbda7"></path><path d="M325.35,242a13.83,13.83,0,0,1,13,4c1.25,1.27,2.28,2.75,3.62,3.92a24.18,24.18,0,0,0,4.18,2.72c3.92,2.21,8,5.07,9,9.77a58.28,58.28,0,0,0,2,8.08c.46,1.23,1,2.4,1.5,3.62a22.68,22.68,0,0,1,1.43,6.35,14.1,14.1,0,0,1-1.92,8.85c-2.2,3.3-7.71,5.87-11.47,3.72V286c-1-2.67-3.85-5.34-5.51-7.67l-9.75-13.56c-.77-1.07-12.27-17.4-12.43-17.3C319,247.43,321.64,242.88,325.35,242Z" style="fill:#f0997a"></path><path d="M350.62,280.65c.3-3.22,1.1-5.93-.42-9a18.74,18.74,0,0,0-3.91-5c-1.9-1.84-4.18-3.21-5.61-5.46-.77-1.21-1.16-2.62-1.86-3.87-1.5-2.68-4.25-4.41-7-5.74-2.47-1.19-5.32-2.47-6.17-5.08a4.78,4.78,0,0,1,1.27-4.7c-.51.06-1,.14-1.55.25-3.71.84-6.35,5.39-6.35,5.39.16-.1,11.66,16.23,12.43,17.3l9.75,13.56c1.66,2.33,4.53,5,5.51,7.67v7.09c3.25,1.86,7.81.19,10.41-2.44C352.16,291,350.21,285,350.62,280.65Z" style="opacity:0.1"></path><path d="M319,247.43A72,72,0,0,1,334.27,259l.19.19c.21.21.42.41.6.63h0c7.4,7.77,11.61,16.7,11.61,26.18H252.18l6.7-3.86,2.47-1.43c.1-.06.21-.11.31-.18Z" style="fill:#ffbda7"></path><path d="M319,247.43A72,72,0,0,1,334.27,259l.19.19c.21.21.42.41.6.63h0c7.4,7.77,11.61,16.7,11.61,26.18H252.18l6.7-3.86,2.47-1.43c.1-.06.21-.11.31-.18Z" style="fill:#fff;opacity:0.30000000000000004"></path><path d="M263.54,287.26a15.71,15.71,0,0,1,2.21.79c1.91.83,3.82,2,6,1.91s3.92-1.23,5.85-2a15.23,15.23,0,0,1,9.84-.45c2.25.66,4.31,1.83,6.51,2.61s4.72,1.13,6.84.15,3.49-3.06,5.6-4c2.87-1.25,6.16,0,9,1.31s6,2.76,9,1.86c2.19-.66,4-2.52,6.29-2.65,2.82-.17,5.07,2.4,6.19,5,.62,1.41,1.61,3.25,3.11,2.86,1.22-.32,1.52-1.9,1.5-3.17s.05-2.81,1.18-3.4,3,.15,3.67-1a2.17,2.17,0,0,0,.15-1.31,25.4,25.4,0,0,0-1.5-5.41,70.13,70.13,0,0,0-4.28-10.23,49.26,49.26,0,0,0-7.9-10.29,40.83,40.83,0,0,0-8.06-6.73,10.52,10.52,0,0,0-4.31-1.67,11.08,11.08,0,0,0-4,.49c-5.19,1.39-10,3.88-14.75,6.43-1.65.89-3.3,1.78-4.95,2.69-7.65,4.2-15.21,8.57-22.73,13q-5.66,3.32-11.27,6.67l-2.81,1.68c-.75.44-1.52.63-2.26,1.05-1.17.68-2.47,2.38-3.94,2.38,1.89,0,3.67.87,5.55,1.05,1.19.12,2.4,0,3.58.17Z" style="fill:#ffd2c3"></path><path d="M322.93,266.21c2.55-1.47,3.36-3.57,2.43-5.43a5.84,5.84,0,0,0-2.43-2.37,14.91,14.91,0,0,0-13.52,0c-1.78,1-2.72,2.36-2.79,3.7s.83,3,2.79,4.1A15,15,0,0,0,322.93,266.21Zm-19.62,4.31a16.08,16.08,0,0,0-14.55,0c-1.91,1.1-2.92,2.54-3,4s.9,3.2,3,4.41a16.14,16.14,0,0,0,14.55,0c2.74-1.58,3.62-3.84,2.61-5.84A6.28,6.28,0,0,0,303.31,270.52ZM332,273a19.31,19.31,0,0,0-5.86-.82c-6.67.06-12,3.22-11.9,7.07.05,1.83,1.32,3.49,3.37,4.71a17.27,17.27,0,0,0,8.89,2.15c6.67-.06,12-3.22,11.9-7.07C338.3,276.37,335.73,274.1,332,273ZM274.74,275l-13.08,7.54c-.1.06-2.36-.7-2.46-.63l-1.39.79c.34.29,2.1,1.81,2.52,2.06a15.9,15.9,0,0,0,8.22,2c6.18-.05,11.11-3,11-6.54C279.51,278.05,277.61,276.15,274.74,275Z" style="opacity:0.1"></path><path d="M326.11,270.08a19.31,19.31,0,0,1,5.86.82c3.76,1.15,6.33,3.41,6.4,6,.1,3.84-5.23,7-11.9,7.06a17.27,17.27,0,0,1-8.89-2.14c-2.05-1.22-3.32-2.88-3.37-4.72C314.12,273.3,319.44,270.13,326.11,270.08Z" style="fill:#b16668"></path><path d="M326.54,272.23a6.53,6.53,0,0,0-1.09-.16,5.66,5.66,0,0,0-4.47,1.34.63.63,0,0,0-.24.53c0,.25.33.36.58.42a9.58,9.58,0,0,0,4,.06c.64-.12,2-.59,1.93-1.47C327.22,272.55,326.91,272.35,326.54,272.23Zm3.19.56a5.74,5.74,0,0,0,1.75.24,1.08,1.08,0,0,0,.5-.11c.42-.25.21-.48-.1-.64a2.2,2.2,0,0,0-.56-.21,3.28,3.28,0,0,0-1.62.1c-.15,0-.33.13-.34.29S329.55,272.74,329.73,272.79Zm4.94,2c-1.28-1.14-3-.72-4.45-.08a2.74,2.74,0,0,0-1.17.89.6.6,0,0,0-.12.41.54.54,0,0,0,.15.3,2.29,2.29,0,0,0,1.6.62,8.08,8.08,0,0,0,3.32-.27,2.07,2.07,0,0,0,.75-.39,1,1,0,0,0,.35-.74A1.11,1.11,0,0,0,334.67,274.78Zm-10.24,1c-.31,0-1.57.22-1.75.65-.06.14,0,.3.23.49a3.16,3.16,0,0,0,1.46.33A2.94,2.94,0,0,0,326,277c.16-.08.32-.21.32-.39a.47.47,0,0,0-.21-.34A2.56,2.56,0,0,0,324.43,275.8Zm-4.11,0c-1.22-.8-3-.21-4.11.54a1.58,1.58,0,0,0-.48.45.71.71,0,0,0-.07.63,1,1,0,0,0,.57.43,5.3,5.3,0,0,0,3.78,0,1.45,1.45,0,0,0,.8-.59A1.16,1.16,0,0,0,320.32,275.81Zm3.52,3.12a2.42,2.42,0,0,0-2.11.29c-.17.12-.34.32-.28.52a.52.52,0,0,0,.23.26,3.25,3.25,0,0,0,1.73.43,2.28,2.28,0,0,0,1.24-.23.47.47,0,0,0,.19-.18c.11-.2,0-.44-.19-.6A2.05,2.05,0,0,0,323.84,278.93Zm9,.29c-1.69-.72-4-.74-5.28.72a1,1,0,0,0-.25.45.81.81,0,0,0,.53.74,3.25,3.25,0,0,0,1.11.24,9.17,9.17,0,0,0,3.71-.53,1.86,1.86,0,0,0,.62-.33.72.72,0,0,0,.26-.61C333.44,279.56,333.1,279.35,332.79,279.22Z" style="fill:#ffbda7;opacity:0.30000000000000004"></path><path d="M322.93,256.36a5.84,5.84,0,0,1,2.43,2.37c.93,1.86.12,3.95-2.43,5.42a14.91,14.91,0,0,1-13.52,0c-2-1.12-2.89-2.61-2.79-4.09s1-2.68,2.79-3.7A14.91,14.91,0,0,1,322.93,256.36Z" style="fill:#b16668"></path><path d="M316.17,257.52a7.1,7.1,0,0,0,2.94.28,1.47,1.47,0,0,0,.62-.13.54.54,0,0,0,.29-.52.77.77,0,0,0-.33-.41,3.16,3.16,0,0,0-3-.25,1.3,1.3,0,0,0-.69.59.32.32,0,0,0,0,.27A.36.36,0,0,0,316.17,257.52ZM313,259.46c1.79-.71-.05-2.14-1.18-2.2-.68,0-3.86.88-2.57,1.85a1.78,1.78,0,0,0,.56.25A4.86,4.86,0,0,0,313,259.46Zm2.13,1.52a9.58,9.58,0,0,0,2.72.41,3,3,0,0,0,1-.09,1.59,1.59,0,0,0,.77-.56,1,1,0,0,0,.17-1,1.17,1.17,0,0,0-.53-.48,5.78,5.78,0,0,0-4.12-.42,2,2,0,0,0-.75.43.93.93,0,0,0-.3.78C314.18,260.53,314.7,260.82,315.17,261Zm8.64-1.81a2.25,2.25,0,0,0-1.52-.66c-.58-.07-1.12,0-1.2.46,0,.18.13.34.28.44a3.59,3.59,0,0,0,1.7.57.8.8,0,0,0,.72-.23A.57.57,0,0,0,323.81,259.17ZM310,262a.92.92,0,0,0,.37.9,4.7,4.7,0,0,0,2.27,1A6.41,6.41,0,0,0,315,264c.38-.07.8-.25.88-.63a.87.87,0,0,0-.3-.71C314.87,262,310.52,260.57,310,262Zm11.33.37a3.48,3.48,0,0,0-3.2.1c-.15.08-.31.18-.34.34s.22.44.46.53a3.43,3.43,0,0,0,.84.2C319.61,263.59,322.47,263.21,321.34,262.36Z" style="fill:#ffbda7;opacity:0.30000000000000004"></path><path d="M303.31,268.47a6.22,6.22,0,0,1,2.61,2.55c1,2,.13,4.26-2.61,5.84a16.14,16.14,0,0,1-14.55,0c-2.1-1.22-3.1-2.82-3-4.41s1.09-2.88,3-4A16.08,16.08,0,0,1,303.31,268.47Z" style="fill:#b16668"></path><path d="M303.82,270.67a3.72,3.72,0,0,0-3.63-1.5,1.86,1.86,0,0,0-1.07.44.89.89,0,0,0-.19,1.07,1.27,1.27,0,0,0,.53.41c.83.45,1.68.87,2.53,1.27a3.21,3.21,0,0,0,1.11.36,1.12,1.12,0,0,0,1-.44A1.49,1.49,0,0,0,303.82,270.67Zm-5,1.3a3.59,3.59,0,0,0-2.55.28c-.35.18-.71.52-.61.9a.93.93,0,0,0,.61.55,4.78,4.78,0,0,0,1.58.36,2.1,2.1,0,0,0,1.35-.3C300,273.2,299.64,272.26,298.82,272Zm-5.49-.48a3.94,3.94,0,0,0,2.06-.84c1.61-1.56-2.37-2.4-3.37-2.32s-4.5,1.53-3.48,3a1.41,1.41,0,0,0,1.13.47A13.74,13.74,0,0,0,293.33,271.49Zm3.24-2.47a1.78,1.78,0,0,0,1.32.3.73.73,0,0,0,.52-.28.63.63,0,0,0-.22-.81,2,2,0,0,0-.88-.28c-.6-.07-1.22.07-1,.73A.71.71,0,0,0,296.57,269Zm-3.8,4.31a4.79,4.79,0,0,0-2.65.14,1.83,1.83,0,0,0-.75.34.72.72,0,0,0-.26.73,1.06,1.06,0,0,0,.75.57,9.28,9.28,0,0,0,3,.44,1.28,1.28,0,0,0,1.15-.44C294.4,274.38,293.37,273.56,292.77,273.33Zm5.34,2.36c-.87-.63-2.41-.2-3.26.25-.23.12-.48.31-.47.57s.27.42.5.51a5,5,0,0,0,2.47.21c.45-.05,1-.19,1.12-.61A.87.87,0,0,0,298.11,275.69Zm4.35-1.58c-.7-.13-1.65.55-2.16.94-.09.07-.19.17-.18.28s.2.21.36.23a4.37,4.37,0,0,0,1.44-.08C302.46,275.36,303.46,274.3,302.46,274.11Z" style="fill:#ffbda7;opacity:0.30000000000000004"></path><path d="M261.35,280.67l-2.15,1.25a8.07,8.07,0,0,0,1.13.79,15.89,15.89,0,0,0,8.22,2c6.18-.05,11.11-3,11-6.54-.06-2.17-2-4.06-4.83-5.2l-13.08,7.53C261.56,280.56,261.45,280.61,261.35,280.67Z" style="fill:#b16668"></path><g style="opacity:0.30000000000000004"><path d="M269.2,282.57a7.12,7.12,0,0,0,4.12-.53c.59-.27,1.52-.82,1.05-1.53a1.5,1.5,0,0,0-1.47-.47,12.47,12.47,0,0,0-4.18,1.33.74.74,0,0,0-.38.36.55.55,0,0,0,.22.61A1.41,1.41,0,0,0,269.2,282.57Z" style="fill:#ffbda7"></path><path d="M272.37,276.15a1.24,1.24,0,0,0-.52,1,1.29,1.29,0,0,0,.66.89,4.09,4.09,0,0,0,3.3.51,2.14,2.14,0,0,0,1.69-1.71,1,1,0,0,0-.07-.45,1.21,1.21,0,0,0-.43-.44A3.85,3.85,0,0,0,272.37,276.15Z" style="fill:#ffbda7"></path><path d="M262.15,282.3a7.68,7.68,0,0,0,3.27-.13,2.2,2.2,0,0,0,1-.47,1,1,0,0,0,.37-1c-.17-.79-1.33-1.45-2.48-1.75l-2.62,1.51c-.1.07-.21.12-.31.18l-.49.29C260.84,281.58,261.21,282.13,262.15,282.3Z" style="fill:#ffbda7"></path><path d="M269.23,277.82c-.48,0-1.83.13-1.76.9,0,.25.3.39.55.45a4.54,4.54,0,0,0,2,.07c.49-.09,1.06-.46.7-1a.91.91,0,0,0-.59-.32A3.52,3.52,0,0,0,269.23,277.82Z" style="fill:#ffbda7"></path></g></g></g><g id="freepik--speech-bubble--inject-136"><g id="freepik--speech-bubble--inject-136"><g id="freepik--speech-bubble--inject-136"><path d="M258.93,46,216.32,70.65c-.84.48-1.52,1.66-1.52,3.94v50.74a3.3,3.3,0,0,0,1.53,2.64l6,3.44a3.41,3.41,0,0,0,3.05,0L268,106.75a3.35,3.35,0,0,0,1.52-2.63V52.05A3.33,3.33,0,0,0,268,49.43L262,46A3.38,3.38,0,0,0,258.93,46Z" style="fill:#057C8D"></path><path d="M225.43,131.4a3.48,3.48,0,0,1-3.05,0l-6-3.44a3.24,3.24,0,0,1-1.53-2.64V74.59a5.59,5.59,0,0,1,.54-2.83l9,5.19a2.74,2.74,0,0,0-.45,1.5v52.07C223.91,131.43,224.54,131.91,225.43,131.4Z" style="opacity:0.15"></path><path d="M210.63,111.9c-.95-.57-8.23-4.68-8.47-4.81a1.42,1.42,0,0,1-.3-2.17L214.8,90.09l9.11,5.22-13.53,14.45A1.44,1.44,0,0,0,210.63,111.9Z" style="fill:#057C8D"></path><path d="M268,51.17l-42.6,24.65a3.35,3.35,0,0,0-1.52,2.63V95.31l-13.54,14.45a1.36,1.36,0,0,0,.87,2.33l12.67-.92h0v19.35c0,1,.68,1.36,1.52.88L268,106.75a3.35,3.35,0,0,0,1.52-2.63V52.05C269.55,51.08,268.87,50.69,268,51.17Z" style="fill:#057C8D"></path><path d="M268,51.17l-42.6,24.65a3.35,3.35,0,0,0-1.52,2.63V95.31l-13.54,14.45a1.36,1.36,0,0,0,.87,2.33l12.67-.92h0v19.35c0,1,.68,1.36,1.52.88L268,106.75a3.35,3.35,0,0,0,1.52-2.63V52.05C269.55,51.08,268.87,50.69,268,51.17Z" style="fill:#fff;opacity:0.35000000000000003"></path></g><path d="M232.31,94.62a20.39,20.39,0,0,1,1.68-8h0l0,0a13.76,13.76,0,0,1,5.07-6.5c3.47-2,6.37,2.14,6.83,7.06.41-5.43,3.24-13,6.71-15,2-1.19,3.85-.9,5.11.53l0,0h0a9.15,9.15,0,0,1,1.75,6c.05,8.32-4.93,15.84-9.09,23.76l-4.49,7.65-4.34-2.48C237.37,104.61,232.35,102.94,232.31,94.62Z" style="fill:#fafafa"></path></g></g><g id="freepik--Tomatoes--inject-136"><g id="freepik--Ingredients--inject-136"><path d="M453.07,391.86c9.51,1.33,18.5,5.28,26.75,10.2-3,1-5.23,3.47-7.52,5.65-8.69,8.23-19,12.11-32.65,11.4a37.92,37.92,0,0,1-15.91-4.6c-5.82-3.33-8-5.33-10.05-8.36A45.33,45.33,0,0,1,453.07,391.86Z" style="fill:#37474f"></path><path d="M424.7,405.11c4.67-4.37,11.87-6.05,18.11-6.54a59.41,59.41,0,0,1,10.07.09c3.21.3,6.82.6,9.7,2.15.23.13.06.73-.2.73-3.25,0-6.48-.78-9.72-1a53,53,0,0,0-9.17,0,49.6,49.6,0,0,0-9.21,1.68c-3.25,1-6.28,2.53-9.51,3.53C424.44,405.86,424.58,405.22,424.7,405.11Z" style="fill:#263238"></path><path d="M436.9,385.56c5.76-11.79,7.56-21.75,7.86-34.86C429,355,411.92,363.44,404.64,377.16s-5.51,22.85-2.23,30.92c2.51.47,11.09-.56,16.94-3.28C428.11,400.73,432.57,394.43,436.9,385.56Z" style="fill:#455a64"></path><path d="M418.53,377.47c2.39-3.07,4.94-6,7.6-8.82,3-3.19,6.38-5.75,9.64-8.61.39-.35.68.16.36.49-2.7,2.73-5,5.93-7.57,8.82s-5,5.94-7.41,9-4.44,5.92-6.52,9c-1.08,1.58-2.16,3.17-3.29,4.72-1.37,1.9-3,3.59-4.33,5.51-.18.26-.51.18-.37-.15.74-1.77,1.24-3.64,2.11-5.34a60.71,60.71,0,0,1,3.08-5.29C413.9,383.56,416.19,380.48,418.53,377.47Z" style="fill:#37474f"></path><path d="M371.28,439.23c0-6-3.93-11.91-11.81-16.46-15.74-9.09-41.27-9.09-57,0-7.87,4.55-11.81,10.5-11.81,16.46v5.07c0,5.95,3.94,11.91,11.81,16.46,15.75,9.09,41.28,9.09,57,0,7.88-4.55,11.81-10.51,11.81-16.46Zm-14.65,11.06c-6.79,3.92-15.9,6.08-25.67,6.08s-18.88-2.16-25.67-6.08c-5-2.86-8.08-6.31-9.06-9.93,1-3.61,4.11-7.07,9.06-9.92,6.79-3.92,15.91-6.08,25.67-6.08s18.88,2.16,25.67,6.08c4.95,2.85,8.08,6.31,9.07,9.92C364.71,444,361.58,447.43,356.63,450.29Z" style="fill:#057C8D"></path><path d="M359.47,422.77c-8.13-4.69-18.86-7-29.52-6.8v8.42c.34,0,.67,0,1,0,9.77,0,18.88,2.16,25.67,6.08,4.95,2.85,8.08,6.31,9.07,9.92-1,3.62-4.12,7.07-9.07,9.93-6.79,3.92-15.9,6.08-25.67,6.08-.34,0-.67,0-1,0v11.22c10.66.16,21.39-2.11,29.52-6.8,7.88-4.55,11.81-10.51,11.81-16.46v-5.07C371.28,433.27,367.35,427.32,359.47,422.77Z" style="opacity:0.1"></path><path d="M356.63,425.51c-6.79-3.92-15.91-6.08-25.66-6.08s-18.89,2.16-25.68,6.08c-6.07,3.49-9.4,7.9-9.4,12.39a7.5,7.5,0,0,0,0,.82.13.13,0,0,0,0,.06,5.17,5.17,0,0,0,.07.55c0,.14,0,.28.07.42s.09.41.14.62c1,3.61,4.13,7.07,9.07,9.92,6.79,3.91,15.91,6.08,25.68,6.08s18.87-2.17,25.66-6.08c4.94-2.85,8.08-6.31,9.07-9.92.06-.25.13-.5.17-.76a.88.88,0,0,0,0-.16,4.91,4.91,0,0,0,.09-.67.13.13,0,0,0,0-.06,7.5,7.5,0,0,0,0-.82C366,433.41,362.7,429,356.63,425.51Z" style="fill:#057C8D"></path><path d="M356.63,425.51c-6.79-3.92-15.91-6.08-25.66-6.08s-18.89,2.16-25.68,6.08c-6.07,3.49-9.4,7.9-9.4,12.39a7.5,7.5,0,0,0,0,.82.13.13,0,0,0,0,.06,5.17,5.17,0,0,0,.07.55c0,.14,0,.28.07.42s.09.41.14.62c1,3.61,4.13,7.07,9.07,9.92,6.79,3.91,15.91,6.08,25.68,6.08s18.87-2.17,25.66-6.08c4.94-2.85,8.08-6.31,9.07-9.92.06-.25.13-.5.17-.76a.88.88,0,0,0,0-.16,4.91,4.91,0,0,0,.09-.67.13.13,0,0,0,0-.06,7.5,7.5,0,0,0,0-.82C366,433.41,362.7,429,356.63,425.51Z" style="opacity:0.1"></path><path d="M359.21,422.92c-15.6-9-40.89-9-56.49,0-7.8,4.51-11.71,10.41-11.71,16.31s3.91,11.81,11.71,16.31c15.6,9,40.89,9,56.49,0,7.8-4.5,11.7-10.41,11.7-16.31S367,427.43,359.21,422.92Zm-53.68,2.71c6.73-3.88,15.76-6,25.43-6h0a2.79,2.79,0,0,1,2.69,3.44l-2.61,11.22c-.11.46-1.13.63-1.64.26l-3.88-2.83a1.6,1.6,0,0,1-.67-.94l-.15-.77c-.15-.74-1.07-1.39-2.46-1.59a5,5,0,0,0-3.06.54l-5.68,3.28a1.45,1.45,0,0,0-.09,2.66h0a4.41,4.41,0,0,0,1.9.53l1.33.09a4.82,4.82,0,0,1,1.62.39l4.89,2.25c.64.29.36.88-.45.94l-23.49,1.83a2.81,2.81,0,0,1-3-2.67c0-.11,0-.22,0-.33C296.21,433.46,299.52,429.1,305.53,425.63ZM331,456.21c-9.67,0-18.7-2.14-25.43-6-.41-.24-.8-.47-1.18-.72a2.8,2.8,0,0,1,.91-5.06l18-4.27c.75-.18,1.5.25,1.2.69l-2.3,3.36a2.58,2.58,0,0,1-1.06.8l-1.09.46c-1,.45-1.55,1.23-1.15,2a3.14,3.14,0,0,0,2.33,1.26l8.07,1.25c1.71.26,3.39-.34,3.73-1.34a1.12,1.12,0,0,0-.15-1.21l-.53-.72a1.16,1.16,0,0,1-.23-1l.93-3.57c.12-.46,1.14-.62,1.64-.25l10.55,7.9a2.81,2.81,0,0,1-1.08,5A59.87,59.87,0,0,1,331,456.21Zm26.74-6.82a2.7,2.7,0,0,1-2.69.22l-19-8.48c-.64-.29-.38-.88.43-.95l6.19-.53a5.55,5.55,0,0,1,1.73.13l1.24.31a5.06,5.06,0,0,0,3.48-.36,1.42,1.42,0,0,0,.85-1.88l-2.05-4.42c-.46-1-2.25-1.63-4-1.43h0a3.77,3.77,0,0,0-1.74.69l-.8.62a3.6,3.6,0,0,1-1.4.61l-5.81,1.33c-.76.17-1.5-.27-1.19-.7l8.75-12.3a2.83,2.83,0,0,1,2.95-1.1,43.39,43.39,0,0,1,11.77,4.48c6,3.47,9.32,7.83,9.32,12.28C365.71,442,362.88,446.06,357.7,449.39Z" style="fill:#057C8D"></path><g style="opacity:0.30000000000000004"><path d="M359.21,422.92c-15.6-9-40.89-9-56.49,0-7.8,4.51-11.71,10.41-11.71,16.31s3.91,11.81,11.71,16.31c15.6,9,40.89,9,56.49,0,7.8-4.5,11.7-10.41,11.7-16.31S367,427.43,359.21,422.92Zm-53.68,2.71c6.73-3.88,15.76-6,25.43-6h0a2.79,2.79,0,0,1,2.69,3.44l-2.61,11.22c-.11.46-1.13.63-1.64.26l-3.88-2.83a1.6,1.6,0,0,1-.67-.94l-.15-.77c-.15-.74-1.07-1.39-2.46-1.59a5,5,0,0,0-3.06.54l-5.68,3.28a1.45,1.45,0,0,0-.09,2.66h0a4.41,4.41,0,0,0,1.9.53l1.33.09a4.82,4.82,0,0,1,1.62.39l4.89,2.25c.64.29.36.88-.45.94l-23.49,1.83a2.81,2.81,0,0,1-3-2.67c0-.11,0-.22,0-.33C296.21,433.46,299.52,429.1,305.53,425.63ZM331,456.21c-9.67,0-18.7-2.14-25.43-6-.41-.24-.8-.47-1.18-.72a2.8,2.8,0,0,1,.91-5.06l18-4.27c.75-.18,1.5.25,1.2.69l-2.3,3.36a2.58,2.58,0,0,1-1.06.8l-1.09.46c-1,.45-1.55,1.23-1.15,2a3.14,3.14,0,0,0,2.33,1.26l8.07,1.25c1.71.26,3.39-.34,3.73-1.34a1.12,1.12,0,0,0-.15-1.21l-.53-.72a1.16,1.16,0,0,1-.23-1l.93-3.57c.12-.46,1.14-.62,1.64-.25l10.55,7.9a2.81,2.81,0,0,1-1.08,5A59.87,59.87,0,0,1,331,456.21Zm26.74-6.82a2.7,2.7,0,0,1-2.69.22l-19-8.48c-.64-.29-.38-.88.43-.95l6.19-.53a5.55,5.55,0,0,1,1.73.13l1.24.31a5.06,5.06,0,0,0,3.48-.36,1.42,1.42,0,0,0,.85-1.88l-2.05-4.42c-.46-1-2.25-1.63-4-1.43h0a3.77,3.77,0,0,0-1.74.69l-.8.62a3.6,3.6,0,0,1-1.4.61l-5.81,1.33c-.76.17-1.5-.27-1.19-.7l8.75-12.3a2.83,2.83,0,0,1,2.95-1.1,43.39,43.39,0,0,1,11.77,4.48c6,3.47,9.32,7.83,9.32,12.28C365.71,442,362.88,446.06,357.7,449.39Z" style="fill:#fff"></path></g><path d="M331,416.76c10.63,0,20.61,2.38,28.11,6.71s11.4,9.84,11.4,15.76-4.05,11.52-11.4,15.76S341.59,461.7,331,461.7s-20.61-2.38-28.11-6.71-11.4-9.84-11.4-15.76,4.05-11.51,11.4-15.76,17.48-6.71,28.11-6.71m0-.81c-10.32,0-20.64,2.27-28.51,6.82s-11.81,10.5-11.81,16.46,3.94,11.92,11.81,16.46,18.19,6.82,28.51,6.82,20.64-2.27,28.51-6.82,11.81-10.5,11.81-16.46-3.93-11.91-11.81-16.46S341.28,416,331,416Z" style="fill:#057C8D"></path><g id="freepik--Seeds--inject-136"><path d="M305,434.2c1.28.14,2.15.78,2,1.41s-1.41,1-2.69.88-2.15-.78-2-1.42S303.75,434.05,305,434.2Z" style="fill:#057C8D"></path><path d="M309.74,427.91c1.07.45,1.45,1.24.84,1.77a3.29,3.29,0,0,1-3.05.15c-1.07-.44-1.45-1.23-.84-1.76A3.29,3.29,0,0,1,309.74,427.91Z" style="fill:#057C8D"></path><path d="M320.18,424c.47.73,0,1.51-1,1.74a2.63,2.63,0,0,1-2.66-.89c-.48-.73-.05-1.51.95-1.75A2.66,2.66,0,0,1,320.18,424Z" style="fill:#057C8D"></path><path d="M330.28,425.62c.16.78-.56,1.47-1.63,1.56a2.05,2.05,0,0,1-2.23-1.26c-.16-.77.56-1.47,1.63-1.55A2.06,2.06,0,0,1,330.28,425.62Z" style="fill:#057C8D"></path><path d="M336.4,451.15c-.42-.74.05-1.51,1.07-1.72a2.54,2.54,0,0,1,2.6,1c.43.74,0,1.51-1.06,1.72A2.56,2.56,0,0,1,336.4,451.15Z" style="fill:#057C8D"></path><path d="M326.07,452.73a1.94,1.94,0,0,1,2.13-1.32c1.07,0,1.85.73,1.74,1.51a1.9,1.9,0,0,1-2.12,1.31C326.75,454.18,326,453.51,326.07,452.73Z" style="fill:#057C8D"></path><path d="M315.43,449.66a3.17,3.17,0,0,1,3-.37c.83.4.85,1.22,0,1.83a3.2,3.2,0,0,1-3,.38C314.63,451.1,314.61,450.27,315.43,449.66Z" style="fill:#057C8D"></path><path d="M310.08,445.2a3.24,3.24,0,0,1,3.05.07c.65.51.34,1.31-.69,1.78a3.26,3.26,0,0,1-3.06-.07C308.73,446.47,309,445.67,310.08,445.2Z" style="fill:#057C8D"></path><path d="M346.22,428.46a3.2,3.2,0,0,1-3,.3c-.81-.42-.78-1.24.07-1.83a3.25,3.25,0,0,1,3-.31C347.11,427.05,347.07,427.87,346.22,428.46Z" style="fill:#057C8D"></path><path d="M354.91,431.18a3.12,3.12,0,0,1-3-.45c-.45-.58.13-1.33,1.3-1.66s2.51-.14,3,.45S356.08,430.84,354.91,431.18Z" style="fill:#057C8D"></path><path d="M357.47,439.09c-1.29-.12-2.2-.73-2-1.37s1.34-1.06,2.63-.94,2.2.73,2,1.37S358.76,439.21,357.47,439.09Z" style="fill:#057C8D"></path><path d="M349.77,443.9c-1.2-.3-1.84-1-1.43-1.62s1.72-.84,2.92-.54,1.85,1,1.43,1.63S351,444.2,349.77,443.9Z" style="fill:#057C8D"></path><path d="M318.42,449.29a3.17,3.17,0,0,0-3,.37c-.82.61-.8,1.44,0,1.84a3.2,3.2,0,0,0,3-.38C319.27,450.51,319.25,449.69,318.42,449.29Zm-.91-26.22c-1,.24-1.43,1-.95,1.75a2.63,2.63,0,0,0,2.66.89c1-.23,1.43-1,1-1.74A2.66,2.66,0,0,0,317.51,423.07ZM305,434.2c-1.28-.15-2.48.24-2.69.87s.67,1.27,2,1.42,2.48-.25,2.69-.88S306.31,434.34,305,434.2Zm53,2.58c-1.29-.12-2.47.3-2.63.94s.75,1.25,2,1.37,2.46-.3,2.62-.94S359.34,436.9,358.06,436.78ZM346.3,426.62a3.25,3.25,0,0,0-3,.31c-.85.59-.88,1.41-.07,1.83a3.2,3.2,0,0,0,3-.3C347.07,427.87,347.11,427.05,346.3,426.62Zm-8.83,22.81c-1,.21-1.49,1-1.07,1.72a2.56,2.56,0,0,0,2.61,1c1-.21,1.49-1,1.06-1.72A2.54,2.54,0,0,0,337.47,449.43Z" style="fill:#fff;opacity:0.2"></path><path d="M310.08,445.2c-1,.47-1.35,1.27-.7,1.78a3.26,3.26,0,0,0,3.06.07c1-.47,1.34-1.27.69-1.78A3.24,3.24,0,0,0,310.08,445.2Zm18.12,6.21a1.94,1.94,0,0,0-2.13,1.32c-.1.78.68,1.45,1.75,1.5a1.9,1.9,0,0,0,2.12-1.31C330.05,452.14,329.27,451.46,328.2,451.41Zm-17.62-21.73c.61-.53.23-1.32-.84-1.77a3.29,3.29,0,0,0-3.05.16c-.61.53-.23,1.32.84,1.76A3.29,3.29,0,0,0,310.58,429.68Zm17.47-5.31c-1.07.08-1.79.78-1.63,1.55a2.05,2.05,0,0,0,2.23,1.26c1.07-.09,1.79-.78,1.63-1.56A2.06,2.06,0,0,0,328.05,424.37Zm23.21,17.37c-1.2-.3-2.51-.06-2.92.54s.23,1.32,1.43,1.62,2.51.06,2.92-.53S352.47,442,351.26,441.74Zm4.95-12.22c-.46-.59-1.79-.79-3-.45s-1.75,1.08-1.3,1.66a3.12,3.12,0,0,0,3,.45C356.08,430.84,356.67,430.1,356.21,429.52Z" style="fill:#fff;opacity:0.5"></path></g><path d="M431.61,430.23c1.88-5.24-.35-11.49-7.15-17.53-13.58-12.08-40.27-18.73-59.6-14.85-9.67,1.94-15.67,6.15-17.55,11.38-.27.74-1.33,3.71-1.6,4.45-1.88,5.23.35,11.48,7.15,17.53,13.59,12.08,40.27,18.72,59.61,14.84,9.66-1.94,15.66-6.15,17.54-11.38Zm-18.81,5.89c-8.33,1.67-18.54,1.2-28.75-1.35s-19.06-6.81-24.92-12c-4.27-3.79-6.45-7.64-6.34-11.07,2.18-2.92,6.54-5.14,12.61-6.36,8.34-1.67,18.55-1.19,28.76,1.35s19,6.81,24.91,12c4.27,3.8,6.45,7.64,6.34,11.08C423.24,432.68,418.88,434.9,412.8,436.12Z" style="fill:#057C8D"></path><path d="M424.46,412.7c-7-6.24-17.52-11-28.7-13.66l-2.67,7.39,1.07.24c10.21,2.54,19,6.81,24.91,12,4.27,3.8,6.45,7.64,6.34,11.08-2.17,2.91-6.53,5.13-12.61,6.35-8.33,1.67-18.54,1.2-28.75-1.35l-1.05-.28-3.54,9.85c11.08,2.91,23,3.72,33,1.71,9.66-1.94,15.66-6.15,17.54-11.38l1.6-4.44C433.49,425,431.26,418.74,424.46,412.7Z" style="opacity:0.1"></path><path d="M420.63,414.36c-5.86-5.21-14.71-9.48-24.91-12s-20.43-3-28.76-1.35c-7.44,1.5-12.32,4.49-13.74,8.44a5.6,5.6,0,0,0-.21.73.06.06,0,0,0,0,.06,4,4,0,0,0-.11.5c0,.13,0,.25-.05.39s0,.38,0,.57c-.12,3.43,2.08,7.28,6.34,11.07,5.86,5.21,14.71,9.49,24.92,12s20.42,3,28.75,1.34c6.07-1.22,10.44-3.43,12.61-6.35a6.74,6.74,0,0,0,.42-.62.46.46,0,0,0,.07-.14,4.4,4.4,0,0,0,.31-.56l0-.06a4.76,4.76,0,0,0,.3-.7C428,423.74,425.86,419,420.63,414.36Z" style="fill:#057C8D"></path><path d="M420.63,414.36c-5.86-5.21-14.71-9.48-24.91-12s-20.43-3-28.76-1.35c-7.44,1.5-12.32,4.49-13.74,8.44a5.6,5.6,0,0,0-.21.73.06.06,0,0,0,0,.06,4,4,0,0,0-.11.5c0,.13,0,.25-.05.39s0,.38,0,.57c-.12,3.43,2.08,7.28,6.34,11.07,5.86,5.21,14.71,9.49,24.92,12s20.42,3,28.75,1.34c6.07-1.22,10.44-3.43,12.61-6.35a6.74,6.74,0,0,0,.42-.62.46.46,0,0,0,.07-.14,4.4,4.4,0,0,0,.31-.56l0-.06a4.76,4.76,0,0,0,.3-.7C428,423.74,425.86,419,420.63,414.36Z" style="opacity:0.1"></path><path d="M424.14,412.76c-13.46-12-39.9-18.55-59.06-14.7-9.57,1.92-15.51,6.09-17.38,11.27s.35,11.38,7.08,17.36c13.46,12,39.9,18.56,59.06,14.71,9.57-1.92,15.51-6.09,17.38-11.27S430.87,418.75,424.14,412.76Zm-71.35-1.08c0-.19,0-.38,0-.57s0-.26.05-.39a4,4,0,0,1,.11-.5.06.06,0,0,1,0-.06,5.6,5.6,0,0,1,.21-.73c1.42-3.95,6.3-6.94,13.74-8.44a64.7,64.7,0,0,1,24.23.38l-1.23,14c0,.43-1.07.46-1.65.06l-4.47-3.13a2.3,2.3,0,0,1-.84-1l-.28-.75a3.93,3.93,0,0,0-2.8-1.79,5,5,0,0,0-3.08.15l-5.43,2.46c-1.18.54-1,1.64.42,2.47h0a6.09,6.09,0,0,0,2,.72l1.4.25a6.37,6.37,0,0,1,1.73.55l5.42,2.7c.71.35.51.88-.31.84l-27.36-1.19A10.79,10.79,0,0,1,352.79,411.68Zm31.26,23.1c-10.21-2.54-19.06-6.82-24.92-12l-.21-.2L382.79,420c.75-.08,1.6.41,1.36.79l-1.85,2.9a1.7,1.7,0,0,1-1,.63l-1.05.31c-1,.3-1.4,1-.87,1.77a4.63,4.63,0,0,0,2.62,1.47l8.55,2.13c1.8.45,3.44.08,3.64-.83a1.15,1.15,0,0,0-.35-1.16l-.66-.73a1.26,1.26,0,0,1-.4-1l.39-3.26c.05-.42,1.08-.45,1.66,0l18.26,13-.32.08C404.47,437.79,394.25,437.32,384.05,434.78Zm42.16-6.33a4.4,4.4,0,0,1-.31.56.46.46,0,0,1-.07.14,6.74,6.74,0,0,1-.42.62,14.26,14.26,0,0,1-5.64,4.17l-23.65-11.51c-.72-.35-.53-.88.29-.85l6.31.23a7.19,7.19,0,0,1,1.82.33l1.33.44a5.55,5.55,0,0,0,3.55.07A1.05,1.05,0,0,0,410,421l-2.83-4.41c-.63-1-2.58-1.8-4.34-1.82h0a3.3,3.3,0,0,0-1.69.44l-.73.49a2.91,2.91,0,0,1-1.35.42l-5.8.57c-.75.07-1.59-.43-1.34-.8l8.21-12.27c8.33,2.58,15.51,6.33,20.51,10.77,5.23,4.65,7.33,9.38,5.91,13.33a4.76,4.76,0,0,1-.3.7Z" style="fill:#057C8D"></path><g style="opacity:0.30000000000000004"><path d="M424.14,412.76c-13.46-12-39.9-18.55-59.06-14.7-9.57,1.92-15.51,6.09-17.38,11.27s.35,11.38,7.08,17.36c13.46,12,39.9,18.56,59.06,14.71,9.57-1.92,15.51-6.09,17.38-11.27S430.87,418.75,424.14,412.76Zm-71.35-1.08c0-.19,0-.38,0-.57s0-.26.05-.39a4,4,0,0,1,.11-.5.06.06,0,0,1,0-.06,5.6,5.6,0,0,1,.21-.73c1.42-3.95,6.3-6.94,13.74-8.44a64.7,64.7,0,0,1,24.23.38l-1.23,14c0,.43-1.07.46-1.65.06l-4.47-3.13a2.3,2.3,0,0,1-.84-1l-.28-.75a3.93,3.93,0,0,0-2.8-1.79,5,5,0,0,0-3.08.15l-5.43,2.46c-1.18.54-1,1.64.42,2.47h0a6.09,6.09,0,0,0,2,.72l1.4.25a6.37,6.37,0,0,1,1.73.55l5.42,2.7c.71.35.51.88-.31.84l-27.36-1.19A10.79,10.79,0,0,1,352.79,411.68Zm31.26,23.1c-10.21-2.54-19.06-6.82-24.92-12l-.21-.2L382.79,420c.75-.08,1.6.41,1.36.79l-1.85,2.9a1.7,1.7,0,0,1-1,.63l-1.05.31c-1,.3-1.4,1-.87,1.77a4.63,4.63,0,0,0,2.62,1.47l8.55,2.13c1.8.45,3.44.08,3.64-.83a1.15,1.15,0,0,0-.35-1.16l-.66-.73a1.26,1.26,0,0,1-.4-1l.39-3.26c.05-.42,1.08-.45,1.66,0l18.26,13-.32.08C404.47,437.79,394.25,437.32,384.05,434.78Zm42.16-6.33a4.4,4.4,0,0,1-.31.56.46.46,0,0,1-.07.14,6.74,6.74,0,0,1-.42.62,14.26,14.26,0,0,1-5.64,4.17l-23.65-11.51c-.72-.35-.53-.88.29-.85l6.31.23a7.19,7.19,0,0,1,1.82.33l1.33.44a5.55,5.55,0,0,0,3.55.07A1.05,1.05,0,0,0,410,421l-2.83-4.41c-.63-1-2.58-1.8-4.34-1.82h0a3.3,3.3,0,0,0-1.69.44l-.73.49a2.91,2.91,0,0,1-1.35.42l-5.8.57c-.75.07-1.59-.43-1.34-.8l8.21-12.27c8.33,2.58,15.51,6.33,20.51,10.77,5.23,4.65,7.33,9.38,5.91,13.33a4.76,4.76,0,0,1-.3.7Z" style="fill:#fff"></path></g><path d="M396.56,400c11.11,2.77,20.79,7.46,27.26,13.21s8.81,11.61,6.94,16.8-7.87,9.06-16.9,10.87c-9.2,1.85-20.38,1.34-31.5-1.42S361.57,432,355.1,426.25s-8.81-11.61-6.94-16.81,7.87-9.05,16.9-10.87c9.2-1.84,20.39-1.34,31.5,1.43m.25-.71c-10.78-2.69-22.29-3.38-31.95-1.44s-15.67,6.15-17.55,11.38.35,11.49,7.15,17.53,16.86,10.72,27.65,13.41,22.29,3.37,32,1.43,15.66-6.14,17.54-11.37-.35-11.49-7.15-17.53S407.6,402,396.81,399.29Z" style="fill:#057C8D"></path><g id="freepik--seeds--inject-136"><path d="M363.13,412.24c1.38.3,2.41,1,2.29,1.6s-1.31.82-2.69.53-2.4-1-2.29-1.6S361.76,412,363.13,412.24Z" style="fill:#057C8D"></path><path d="M367.09,406.75c1.2.56,1.73,1.36,1.17,1.8s-2,.34-3.19-.22-1.73-1.36-1.18-1.8S365.88,406.19,367.09,406.75Z" style="fill:#057C8D"></path><path d="M377.47,404.2c.62.76.3,1.46-.72,1.57a3.76,3.76,0,0,1-3-1.19c-.62-.76-.3-1.46.72-1.57A3.76,3.76,0,0,1,377.47,404.2Z" style="fill:#057C8D"></path><path d="M388.42,407c.3.77-.35,1.35-1.46,1.3a3,3,0,0,1-2.56-1.47c-.31-.77.35-1.36,1.46-1.31A3,3,0,0,1,388.42,407Z" style="fill:#057C8D"></path><path d="M399.07,432.38c-.57-.77-.19-1.45.84-1.54a3.66,3.66,0,0,1,2.91,1.24c.58.76.2,1.45-.84,1.53A3.65,3.65,0,0,1,399.07,432.38Z" style="fill:#057C8D"></path><path d="M388.41,432.65c0-.73.89-1.19,2-1s2.07.92,2.09,1.66-.89,1.2-2,1S388.42,433.39,388.41,432.65Z" style="fill:#057C8D"></path><path d="M376.65,428.42a3.44,3.44,0,0,1,3.1,0c.95.49,1.11,1.29.35,1.78a3.45,3.45,0,0,1-3.1,0C376.05,429.7,375.89,428.91,376.65,428.42Z" style="fill:#057C8D"></path><path d="M370.27,423.47a4,4,0,0,1,3.24.43c.77.57.57,1.3-.44,1.64a4,4,0,0,1-3.24-.43C369.06,424.53,369.26,423.8,370.27,423.47Z" style="fill:#057C8D"></path><path d="M405.73,411.66a3.55,3.55,0,0,1-3.13-.06c-.93-.51-1-1.3-.22-1.76a3.55,3.55,0,0,1,3.13.06C406.44,410.41,406.54,411.19,405.73,411.66Z" style="fill:#057C8D"></path><path d="M415.36,415.33a4.1,4.1,0,0,1-3.21-.79c-.58-.61-.08-1.26,1.11-1.44a4.11,4.11,0,0,1,3.2.78C417,414.5,416.55,415.15,415.36,415.33Z" style="fill:#057C8D"></path><path d="M419.36,423.27c-1.38-.27-2.44-1-2.38-1.56s1.24-.86,2.62-.59,2.45,1,2.38,1.56S420.74,423.54,419.36,423.27Z" style="fill:#057C8D"></path><path d="M412,427c-1.32-.43-2.12-1.21-1.78-1.73s1.69-.6,3-.16,2.11,1.21,1.77,1.73S413.33,427.42,412,427Z" style="fill:#057C8D"></path><path d="M379.75,428.41a3.44,3.44,0,0,0-3.1,0c-.76.49-.6,1.28.35,1.77a3.45,3.45,0,0,0,3.1,0C380.86,429.7,380.7,428.9,379.75,428.41ZM374.51,403c-1,.11-1.34.81-.72,1.57a3.76,3.76,0,0,0,3,1.19c1-.11,1.34-.81.72-1.57A3.76,3.76,0,0,0,374.51,403Zm-11.38,9.23c-1.37-.29-2.58-.06-2.69.53s.92,1.3,2.29,1.6,2.58.06,2.69-.53S364.51,412.54,363.13,412.24Zm56.47,8.88c-1.38-.27-2.55,0-2.62.59s1,1.29,2.38,1.56,2.55,0,2.62-.59S421,421.39,419.6,421.12ZM405.51,409.9a3.55,3.55,0,0,0-3.13-.06c-.81.46-.71,1.25.22,1.76a3.55,3.55,0,0,0,3.13.06C406.54,411.19,406.44,410.41,405.51,409.9Zm-5.6,20.94c-1,.09-1.41.77-.84,1.54a3.65,3.65,0,0,0,2.91,1.23c1-.08,1.42-.77.84-1.53A3.66,3.66,0,0,0,399.91,430.84Z" style="fill:#fff;opacity:0.2"></path><path d="M370.27,423.47c-1,.33-1.21,1.06-.44,1.64a4,4,0,0,0,3.24.43c1-.34,1.21-1.07.44-1.64A4,4,0,0,0,370.27,423.47Zm20.17,8.17c-1.14-.18-2.05.28-2,1s.95,1.49,2.09,1.67,2.05-.28,2-1S391.58,431.82,390.44,431.64Zm-22.18-23.09c.56-.44,0-1.24-1.17-1.8s-2.64-.66-3.2-.22,0,1.25,1.18,1.8S367.7,409,368.26,408.55Zm17.6-3c-1.11,0-1.77.54-1.46,1.31a3,3,0,0,0,2.56,1.47c1.11.05,1.76-.53,1.46-1.3A3,3,0,0,0,385.86,405.53Zm27.38,19.56c-1.32-.44-2.67-.36-3,.16s.46,1.3,1.78,1.73,2.66.37,3-.16S414.56,425.52,413.24,425.09Zm3.22-11.21a4.11,4.11,0,0,0-3.2-.78c-1.19.18-1.69.83-1.11,1.44a4.1,4.1,0,0,0,3.21.79C416.55,415.15,417,414.5,416.46,413.88Z" style="fill:#fff;opacity:0.5"></path></g></g></g><g id="freepik--Cutlery--inject-136"><g id="freepik--fork--inject-136"><path d="M20.43,404.32l64.72,39.76a20.21,20.21,0,0,1,4.35-2.25l0-1L27.74,399.58c-1.92-1.23-7.59,1.41-7.67,3.07,0,.16-.05.81-.05,1A.74.74,0,0,0,20.43,404.32Z" style="fill:#37474f"></path><path d="M27.74,399.58c-2.22-1.42-9.48,2.34-7.27,3.76L85.2,443.1a19.25,19.25,0,0,1,4.35-2.25Z" style="fill:#455a64"></path><path d="M84.85,442,26.78,406.55c-4.42-2.69-7.13-3.95-4.17-5.48,3.46-1.79,4.25-.89,4.25-.89a7.45,7.45,0,0,0-3.22.94c-1.75,1-.33,2.53,2.92,4.27S84.85,442,84.85,442Z" style="fill:#fff;opacity:0.1"></path><path d="M119.07,466.62l.06-1s-6,.64-13.89-4.66a14.86,14.86,0,0,1-5.49-4.21c.7,0,3.4,2.13,6.35,3.51,9.54,4.45,14.24,5.06,14.24,5.06l.81-.9.06-1s-2.55.86-14.17-5.92c-3.58-1.67-4.09-2.73-4.69-3.72.55-.53,3.53,1.84,6,3.17,10.33,5.51,13.68,6.24,13.68,6.24l1.22-1.11.06-1s-2.12.3-14.16-7.27a15.3,15.3,0,0,1-3.93-3.35c.77-.42,2.19,1,5.49,3.2a53.38,53.38,0,0,0,13.84,6.92l1-1,.06-1s-5.24.12-17.71-11.33a24.14,24.14,0,0,0-10.7-5.58c-3.64-.65-5.89.34-7.69-.95a13.29,13.29,0,0,0-4.36,2.25,4,4,0,0,1,.64.48c-.23.16-.47.32-.69.49,3.12,1.83,2,7,4.25,9.8s5.54,5.73,13.66,10c8.34,4.4,15,3.66,15,3.66Z" style="fill:#37474f"></path><path d="M119.13,465.65s-4.82.38-13.89-4.66c-3.12-1.73-6.48-4.35-5.65-5.11s3.45,1.88,6.57,3.44c10,5,14.23,5.06,14.23,5.06l.82-.9s-3.61.09-14.17-5.92c-3-1.67-5.54-3.92-4.58-4.84s3.55,1.7,6,3.17c10,5.95,13.64,6.39,13.64,6.39l1.22-1.11s-3.4-.45-14.16-7.27c-2.59-1.63-4.64-3.58-3.94-4.31s2.06.75,5.56,3.19c8.56,6,13.83,6.92,13.83,6.92l1-1s-5-.63-17.71-11.33c-2.5-2.09-7-4.93-10.7-5.58s-5.89.34-7.69-.95a13.29,13.29,0,0,0-4.36,2.25c3.13,1.83,2,7,4.26,9.8s5.54,5.73,13.66,10c8.34,4.4,15,3.66,15,3.66Z" style="fill:#455a64"></path><path d="M90.7,449.11a31,31,0,0,0-1.18-3,4.29,4.29,0,0,0-2.26-2.18,10.25,10.25,0,0,1,1.14,2.61c.18.67.25,1.37.38,2.06a12.26,12.26,0,0,0,4.36,7.21c.38.3,3.15,2.42,3.4,1.37.1-.41-1.12-1.29-1.41-1.58-.56-.59-1.11-1.19-1.62-1.83A17.76,17.76,0,0,1,90.7,449.11Z" style="fill:#fff;opacity:0.1"></path></g><g id="freepik--knife--inject-136"><path d="M59.55,400.91l66.85,38.42a20.49,20.49,0,0,1,4.35-2.42v-1l-63.93-40c-2-1.18-7.66,1.66-7.7,3.34,0,.17,0,.83,0,1A.78.78,0,0,0,59.55,400.91Z" style="fill:#37474f"></path><path d="M160.55,464c8.06,1.88,12.08.46,12.06-1.08a10.54,10.54,0,0,0-.16-1.23c-2.39-2.06-38.85-23.28-55.95-33.75l.14,5.74c5.68,3,4.71,12.24,10.4,16.63S150.63,461.73,160.55,464Z" style="fill:#37474f"></path><path d="M66.83,395.88c-2.29-1.37-9.55,2.66-7.26,4l66.85,38.42a19.52,19.52,0,0,1,4.34-2.41Z" style="fill:#455a64"></path><path d="M160.32,462.5c9.92,2.32,13.85.3,11.47-1.76s-38.34-23.38-55.44-33.85l.14,5.74c5.68,3.05,4.66,11.06,10.35,15.44S150.39,460.19,160.32,462.5Z" style="fill:#455a64"></path><path d="M126,437.27,66.06,403c-4.56-2.59-7.35-3.79-4.39-5.43,3.46-1.93,4.28-1,4.28-1a7.53,7.53,0,0,0-3.23,1.05c-1.75,1.08-.27,2.58,3.08,4.25S126,437.27,126,437.27Z" style="fill:#fff;opacity:0.1"></path></g></g></svg>